<?xml version="1.0" encoding="UTF-8"?>
<svg width="147px" height="14px" viewBox="0 0 147 14" version="1.1" xmlns="http://www.w3.org/2000/svg" xmlns:xlink="http://www.w3.org/1999/xlink">
    <!-- Generator: Sketch 54.1 (76490) - https://sketchapp.com -->
    <title>KERO’SPORTFOLIO</title>
    <desc>Created with Sketch.</desc>
    <g id="页面1" stroke="none" stroke-width="1" fill="none" fill-rule="evenodd">
        <g id="桌面端复制" transform="translate(-275.000000, -77.000000)" fill="#1E1E1E" fill-rule="nonzero">
            <path d="M282.504,89.696 C282.552,89.76 282.584,89.808 282.584,89.84 C282.584,89.952 282.408,90 282.216,90 L281.128,90 C280.968,90 280.84,89.856 280.744,89.744 L277.784,86.608 L276.312,88.144 L276.312,89.616 C276.312,89.872 276.184,90 275.928,90 L275.368,90 C275.128,90 275,89.872 275,89.616 L275,78.912 C275,78.688 275.144,78.528 275.368,78.528 L275.928,78.528 C276.152,78.528 276.312,78.704 276.312,78.912 L276.312,83.456 L279.576,79.984 C279.672,79.872 279.8,79.728 279.976,79.728 L281.064,79.728 C281.304,79.728 281.4,79.792 281.4,79.904 C281.4,79.952 281.384,79.984 281.336,80.032 L276.312,85.36 L276.312,86.24 L280.552,81.76 C280.664,81.648 280.792,81.504 280.952,81.504 L282.04,81.504 C282.232,81.504 282.52,81.616 282.328,81.808 L278.68,85.648 L282.504,89.696 Z M284.36,90 C284.184,90 284.104,89.92 284.104,89.744 L284.104,78.768 C284.104,78.608 284.2,78.544 284.36,78.544 L291.928,78.544 C292.088,78.544 292.168,78.624 292.168,78.784 L292.168,79.584 C292.168,79.776 292.088,79.872 291.912,79.872 L285.448,79.872 L285.448,81.792 L290.584,81.792 C290.728,81.792 290.824,81.92 290.824,82.064 L290.824,82.864 C290.824,83.008 290.728,83.136 290.584,83.136 L285.448,83.136 L285.448,85.12 L290.584,85.12 C290.728,85.12 290.824,85.232 290.824,85.376 L290.824,86.192 C290.824,86.32 290.728,86.464 290.584,86.464 L285.448,86.464 L285.448,88.672 L291.864,88.672 C292.024,88.672 292.152,88.768 292.152,88.944 L292.152,89.728 C292.152,89.904 292.056,90 291.88,90 L284.36,90 Z M293.944,84.432 L298.6,84.432 C299.736,84.352 300.696,83.28 300.696,82.144 C300.696,80.976 299.704,79.856 298.488,79.856 L294.632,79.856 C294.456,79.856 294.376,79.744 294.376,79.584 L294.376,78.784 C294.376,78.624 294.472,78.544 294.632,78.544 L298.504,78.544 C300.408,78.544 302.04,80.192 302.04,82.128 C302.04,83.744 300.888,85.216 299.32,85.664 L301.816,89.824 C301.848,89.888 301.864,89.92 301.864,89.952 C301.864,89.984 301.816,90 301.72,90 L300.52,90 C300.36,90 300.248,89.888 300.168,89.76 L297.752,85.744 L295.016,85.744 L295.016,89.76 C295.016,89.92 294.936,90 294.776,90 L293.944,90 C293.768,90 293.688,89.92 293.688,89.76 L293.688,84.704 C293.688,84.544 293.8,84.432 293.944,84.432 Z M309.464,78.192 C312.712,78.192 315.368,80.848 315.368,84.096 C315.368,87.344 312.712,90 309.464,90 C306.2,90 303.56,87.344 303.56,84.096 C303.56,80.848 306.2,78.192 309.464,78.192 Z M309.464,88.704 C311.992,88.704 314.056,86.624 314.056,84.096 C314.056,81.552 311.992,79.488 309.464,79.488 C306.92,79.488 304.856,81.552 304.856,84.096 C304.856,86.624 306.92,88.704 309.464,88.704 Z M318.3865,82.09375 L318.3865,81.515625 C318.636501,81.4479163 318.823999,81.2669286 318.949,80.9726562 C319.074001,80.6783839 319.1365,80.2708359 319.1365,79.75 L319.1365,79.59375 L318.3865,79.59375 L318.3865,77.6640625 L320.316188,77.6640625 L320.316188,79.3359375 C320.316188,80.1953168 320.154731,80.8541644 319.831813,81.3125 C319.508894,81.7708356 319.027128,82.0312497 318.3865,82.09375 Z M323.9985,80.304 C323.9025,80.4 323.3585,81.248 323.3585,81.872 C323.3585,82.288 323.5025,82.72 323.7905,83.104 C324.5745,84.144 325.5185,84.896 325.5185,86.448 C325.5185,88.304 324.0785,89.952 322.1425,90.064 C321.9665,90.064 321.8865,89.936 321.8865,89.776 L321.8865,89.072 C321.8865,88.928 321.9985,88.832 322.1425,88.816 C323.2785,88.672 324.2705,87.456 324.2705,86.336 C324.2705,85.04 322.9265,84.304 322.4145,83.264 C322.1745,82.784 322.0625,82.288 322.0625,81.808 C322.0625,79.984 323.5665,78.272 325.5185,78.176 C325.6945,78.176 325.7745,78.304 325.7745,78.464 L325.7745,79.2 C325.7745,79.36 325.6625,79.424 325.5185,79.44 C324.9105,79.52 324.3985,79.856 323.9985,80.304 Z M334.3505,78.544 L338.2225,78.544 C340.3025,78.544 341.6305,80.128 341.6305,82.096 C341.6305,83.936 340.2705,85.744 338.1585,85.744 L334.6545,85.744 L334.6545,89.76 C334.6545,89.92 334.5745,90 334.3985,90 L333.5825,90 C333.4065,90 333.3265,89.92 333.3265,89.76 L333.3265,84.704 C333.3265,84.544 333.4385,84.432 333.5825,84.432 L338.2065,84.448 C339.3585,84.368 340.3345,83.296 340.3345,82.16 C340.3345,80.976 339.3425,79.856 338.1265,79.856 L334.3505,79.856 C334.1905,79.856 334.0945,79.744 334.0945,79.616 L334.0945,78.816 C334.0945,78.656 334.2065,78.544 334.3505,78.544 Z M349.0545,78.192 C352.3025,78.192 354.9585,80.848 354.9585,84.096 C354.9585,87.344 352.3025,90 349.0545,90 C345.7905,90 343.1505,87.344 343.1505,84.096 C343.1505,80.848 345.7905,78.192 349.0545,78.192 Z M349.0545,88.704 C351.5825,88.704 353.6465,86.624 353.6465,84.096 C353.6465,81.552 351.5825,79.488 349.0545,79.488 C346.5105,79.488 344.4465,81.552 344.4465,84.096 C344.4465,86.624 346.5105,88.704 349.0545,88.704 Z M356.6705,84.432 L361.3265,84.432 C362.4625,84.352 363.4225,83.28 363.4225,82.144 C363.4225,80.976 362.4305,79.856 361.2145,79.856 L357.3585,79.856 C357.1825,79.856 357.1025,79.744 357.1025,79.584 L357.1025,78.784 C357.1025,78.624 357.1985,78.544 357.3585,78.544 L361.2305,78.544 C363.1345,78.544 364.7665,80.192 364.7665,82.128 C364.7665,83.744 363.6145,85.216 362.0465,85.664 L364.5425,89.824 C364.5745,89.888 364.5905,89.92 364.5905,89.952 C364.5905,89.984 364.5425,90 364.4465,90 L363.2465,90 C363.0865,90 362.9745,89.888 362.8945,89.76 L360.4785,85.744 L357.7425,85.744 L357.7425,89.76 C357.7425,89.92 357.6625,90 357.5025,90 L356.6705,90 C356.4945,90 356.4145,89.92 356.4145,89.76 L356.4145,84.704 C356.4145,84.544 356.5265,84.432 356.6705,84.432 Z M372.4945,78.544 C372.6385,78.544 372.7505,78.64 372.7825,78.784 L372.7825,79.568 C372.7825,79.76 372.6705,79.872 372.4945,79.872 L369.1345,79.872 L369.1345,89.744 C369.1345,89.872 369.0225,90 368.8625,90 L368.0625,90 C367.9185,90 367.8065,89.888 367.8065,89.744 L367.8065,78.784 C367.8065,78.64 367.9185,78.544 368.0625,78.544 L372.4945,78.544 Z M375.6465,84.944 L375.6465,89.776 C375.6465,89.936 375.5345,90 375.3745,90 L374.5585,90 C374.3985,90 374.3025,89.936 374.3025,89.776 L374.3025,78.8 C374.3025,78.624 374.3825,78.544 374.5585,78.544 L381.9665,78.544 C382.1425,78.544 382.2385,78.64 382.2385,78.816 L382.2385,79.584 C382.2385,79.744 382.1265,79.872 381.9665,79.872 L375.6465,79.872 L375.6465,83.6 L380.1265,83.6 C380.2705,83.6 380.3665,83.712 380.3665,83.856 L380.3665,84.656 C380.3665,84.8 380.2705,84.944 380.1265,84.944 L375.6465,84.944 Z M389.6625,78.192 C392.9105,78.192 395.5665,80.848 395.5665,84.096 C395.5665,87.344 392.9105,90 389.6625,90 C386.3985,90 383.7585,87.344 383.7585,84.096 C383.7585,80.848 386.3985,78.192 389.6625,78.192 Z M389.6625,88.704 C392.1905,88.704 394.2545,86.624 394.2545,84.096 C394.2545,81.552 392.1905,79.488 389.6625,79.488 C387.1185,79.488 385.0545,81.552 385.0545,84.096 C385.0545,86.624 387.1185,88.704 389.6625,88.704 Z M403.9505,90 L397.2625,90 C397.1025,90 397.0225,89.92 397.0225,89.76 L397.0225,78.784 C397.0225,78.608 397.1345,78.544 397.2785,78.544 L398.0945,78.544 C398.2545,78.544 398.3345,78.64 398.3345,78.784 L398.3345,88.672 L403.9505,88.672 C404.1105,88.672 404.1905,88.816 404.1905,88.944 L404.1905,89.76 C404.1745,89.904 404.0945,89.984 403.9505,90 Z M405.9505,78.544 L406.7825,78.544 C406.9905,78.544 407.0545,78.656 407.0545,78.8 L407.0545,89.76 C407.0545,89.92 406.9425,90 406.7825,90 L405.9505,90 C405.7905,90 405.7105,89.92 405.7105,89.76 L405.7105,78.784 C405.7105,78.64 405.8225,78.544 405.9505,78.544 Z M415.5505,78.192 C418.7985,78.192 421.4545,80.848 421.4545,84.096 C421.4545,87.344 418.7985,90 415.5505,90 C412.2865,90 409.6465,87.344 409.6465,84.096 C409.6465,80.848 412.2865,78.192 415.5505,78.192 Z M415.5505,88.704 C418.0785,88.704 420.1425,86.624 420.1425,84.096 C420.1425,81.552 418.0785,79.488 415.5505,79.488 C413.0065,79.488 410.9425,81.552 410.9425,84.096 C410.9425,86.624 413.0065,88.704 415.5505,88.704 Z" id="KERO’SPORTFOLIO"></path>
        </g>
    </g>
</svg>