<?xml version="1.0" encoding="UTF-8"?>
<svg width="1447px" height="406px" viewBox="0 0 1447 406" version="1.1" xmlns="http://www.w3.org/2000/svg" xmlns:xlink="http://www.w3.org/1999/xlink">
    <!-- Generator: Sketch 54.1 (76490) - https://sketchapp.com -->
    <title>画板</title>
    <desc>Created with Sketch.</desc>
    <g id="页面1" stroke="none" stroke-width="1" fill="none" fill-rule="evenodd">
        <g id="画板">
            <g id="编组-9" transform="translate(533.000000, -197.000000)">
                <g id="编组-3" transform="translate(541.356347, 541.605050) rotate(45.000000) translate(-541.356347, -541.605050) translate(157.856347, 159.605050)">
                    <g id="编组-6" transform="translate(129.463881, 0.000000)" fill="#ACB6CA">
                        <ellipse id="椭圆形复制-6" cx="75.520597" cy="75.1279043" rx="10.7886567" ry="10.7325578"></ellipse>
                        <ellipse id="椭圆形复制-7" cx="107.886567" cy="75.1279043" rx="10.7886567" ry="10.7325578"></ellipse>
                        <ellipse id="椭圆形复制-4" cx="10.7886567" cy="139.523251" rx="10.7886567" ry="10.7325578"></ellipse>
                        <ellipse id="椭圆形复制-5" cx="43.1546268" cy="139.523251" rx="10.7886567" ry="10.7325578"></ellipse>
                        <ellipse id="椭圆形复制-6" cx="75.520597" cy="139.523251" rx="10.7886567" ry="10.7325578"></ellipse>
                        <ellipse id="椭圆形复制-7" cx="107.886567" cy="139.523251" rx="10.7886567" ry="10.7325578"></ellipse>
                        <ellipse id="椭圆形复制-4" cx="10.7886567" cy="203.918597" rx="10.7886567" ry="10.7325578"></ellipse>
                        <ellipse id="椭圆形复制-5" cx="43.1546268" cy="203.918597" rx="10.7886567" ry="10.7325578"></ellipse>
                        <ellipse id="椭圆形复制-6" cx="75.520597" cy="203.918597" rx="10.7886567" ry="10.7325578"></ellipse>
                        <ellipse id="椭圆形复制-7" cx="107.886567" cy="203.918597" rx="10.7886567" ry="10.7325578"></ellipse>
                        <ellipse id="椭圆形复制-7" cx="107.886567" cy="42.930231" rx="10.7886567" ry="10.7325578"></ellipse>
                        <ellipse id="椭圆形复制-5" cx="43.1546268" cy="107.325578" rx="10.7886567" ry="10.7325578"></ellipse>
                        <ellipse id="椭圆形复制-6" cx="75.520597" cy="107.325578" rx="10.7886567" ry="10.7325578"></ellipse>
                        <ellipse id="椭圆形复制-7" cx="107.886567" cy="107.325578" rx="10.7886567" ry="10.7325578"></ellipse>
                        <ellipse id="椭圆形复制-4" cx="10.7886567" cy="171.720924" rx="10.7886567" ry="10.7325578"></ellipse>
                        <ellipse id="椭圆形复制-5" cx="43.1546268" cy="171.720924" rx="10.7886567" ry="10.7325578"></ellipse>
                        <ellipse id="椭圆形复制-6" cx="75.520597" cy="171.720924" rx="10.7886567" ry="10.7325578"></ellipse>
                        <ellipse id="椭圆形复制-7" cx="107.886567" cy="171.720924" rx="10.7886567" ry="10.7325578"></ellipse>
                        <ellipse id="椭圆形复制-4" cx="10.7886567" cy="236.116271" rx="10.7886567" ry="10.7325578"></ellipse>
                        <ellipse id="椭圆形复制-5" cx="43.1546268" cy="236.116271" rx="10.7886567" ry="10.7325578"></ellipse>
                        <ellipse id="椭圆形复制-6" cx="75.520597" cy="236.116271" rx="10.7886567" ry="10.7325578"></ellipse>
                        <ellipse id="椭圆形复制-7" cx="107.886567" cy="236.116271" rx="10.7886567" ry="10.7325578"></ellipse>
                        <ellipse id="椭圆形复制-4" cx="10.7886567" cy="268.313944" rx="10.7886567" ry="10.7325578"></ellipse>
                        <ellipse id="椭圆形复制-5" cx="43.1546268" cy="268.313944" rx="10.7886567" ry="10.7325578"></ellipse>
                        <ellipse id="椭圆形复制-6" cx="75.520597" cy="268.313944" rx="10.7886567" ry="10.7325578"></ellipse>
                        <ellipse id="椭圆形复制-7" cx="107.886567" cy="268.313944" rx="10.7886567" ry="10.7325578"></ellipse>
                        <ellipse id="椭圆形复制-4" cx="10.7886567" cy="332.70929" rx="10.7886567" ry="10.7325578"></ellipse>
                        <ellipse id="椭圆形复制-5" cx="43.1546268" cy="332.70929" rx="10.7886567" ry="10.7325578"></ellipse>
                        <ellipse id="椭圆形复制-6" cx="75.520597" cy="332.70929" rx="10.7886567" ry="10.7325578"></ellipse>
                        <ellipse id="椭圆形复制-7" cx="107.886567" cy="332.70929" rx="10.7886567" ry="10.7325578"></ellipse>
                        <ellipse id="椭圆形复制-4" cx="10.7886567" cy="397.104637" rx="10.7886567" ry="10.7325578"></ellipse>
                        <ellipse id="椭圆形复制-5" cx="43.1546268" cy="397.104637" rx="10.7886567" ry="10.7325578"></ellipse>
                        <ellipse id="椭圆形复制-6" cx="75.520597" cy="397.104637" rx="10.7886567" ry="10.7325578"></ellipse>
                        <ellipse id="椭圆形复制-7" cx="107.886567" cy="397.104637" rx="10.7886567" ry="10.7325578"></ellipse>
                        <ellipse id="椭圆形复制-4" cx="10.7886567" cy="461.499984" rx="10.7886567" ry="10.7325578"></ellipse>
                        <ellipse id="椭圆形复制-5" cx="43.1546268" cy="461.499984" rx="10.7886567" ry="10.7325578"></ellipse>
                        <ellipse id="椭圆形复制-6" cx="75.520597" cy="461.499984" rx="10.7886567" ry="10.7325578"></ellipse>
                        <ellipse id="椭圆形复制-7" cx="107.886567" cy="461.499984" rx="10.7886567" ry="10.7325578"></ellipse>
                        <ellipse id="椭圆形复制-4" cx="10.7886567" cy="300.511617" rx="10.7886567" ry="10.7325578"></ellipse>
                        <ellipse id="椭圆形复制-5" cx="43.1546268" cy="300.511617" rx="10.7886567" ry="10.7325578"></ellipse>
                        <ellipse id="椭圆形复制-6" cx="75.520597" cy="300.511617" rx="10.7886567" ry="10.7325578"></ellipse>
                        <ellipse id="椭圆形复制-7" cx="107.886567" cy="300.511617" rx="10.7886567" ry="10.7325578"></ellipse>
                        <ellipse id="椭圆形复制-4" cx="10.7886567" cy="364.906964" rx="10.7886567" ry="10.7325578"></ellipse>
                        <ellipse id="椭圆形复制-5" cx="43.1546268" cy="364.906964" rx="10.7886567" ry="10.7325578"></ellipse>
                        <ellipse id="椭圆形复制-6" cx="75.520597" cy="364.906964" rx="10.7886567" ry="10.7325578"></ellipse>
                        <ellipse id="椭圆形复制-7" cx="107.886567" cy="364.906964" rx="10.7886567" ry="10.7325578"></ellipse>
                        <ellipse id="椭圆形复制-4" cx="10.7886567" cy="429.30231" rx="10.7886567" ry="10.7325578"></ellipse>
                        <ellipse id="椭圆形复制-5" cx="43.1546268" cy="429.30231" rx="10.7886567" ry="10.7325578"></ellipse>
                        <ellipse id="椭圆形复制-6" cx="75.520597" cy="429.30231" rx="10.7886567" ry="10.7325578"></ellipse>
                        <ellipse id="椭圆形复制-7" cx="107.886567" cy="429.30231" rx="10.7886567" ry="10.7325578"></ellipse>
                        <ellipse id="椭圆形复制-4" cx="10.7886567" cy="493.697657" rx="10.7886567" ry="10.7325578"></ellipse>
                        <ellipse id="椭圆形复制-5" cx="43.1546268" cy="493.697657" rx="10.7886567" ry="10.7325578"></ellipse>
                        <ellipse id="椭圆形复制-6" cx="75.520597" cy="493.697657" rx="10.7886567" ry="10.7325578"></ellipse>
                        <ellipse id="椭圆形复制-7" cx="107.886567" cy="493.697657" rx="10.7886567" ry="10.7325578"></ellipse>
                        <ellipse id="椭圆形复制-4" cx="10.7886567" cy="527.2369" rx="10.7886567" ry="10.7325578"></ellipse>
                        <ellipse id="椭圆形复制-5" cx="43.1546268" cy="527.2369" rx="10.7886567" ry="10.7325578"></ellipse>
                        <ellipse id="椭圆形复制-6" cx="75.520597" cy="527.2369" rx="10.7886567" ry="10.7325578"></ellipse>
                        <ellipse id="椭圆形复制-7" cx="107.886567" cy="527.2369" rx="10.7886567" ry="10.7325578"></ellipse>
                        <ellipse id="椭圆形复制-4" cx="10.7886567" cy="591.632246" rx="10.7886567" ry="10.7325578"></ellipse>
                        <ellipse id="椭圆形复制-5" cx="43.1546268" cy="591.632246" rx="10.7886567" ry="10.7325578"></ellipse>
                        <ellipse id="椭圆形复制-6" cx="75.520597" cy="591.632246" rx="10.7886567" ry="10.7325578"></ellipse>
                        <ellipse id="椭圆形复制-7" cx="107.886567" cy="591.632246" rx="10.7886567" ry="10.7325578"></ellipse>
                        <ellipse id="椭圆形复制-4" cx="10.7886567" cy="656.027593" rx="10.7886567" ry="10.7325578"></ellipse>
                        <ellipse id="椭圆形复制-5" cx="43.1546268" cy="656.027593" rx="10.7886567" ry="10.7325578"></ellipse>
                        <ellipse id="椭圆形复制-6" cx="75.520597" cy="656.027593" rx="10.7886567" ry="10.7325578"></ellipse>
                        <ellipse id="椭圆形复制-4" cx="10.7886567" cy="720.422939" rx="10.7886567" ry="10.7325578"></ellipse>
                        <ellipse id="椭圆形复制-4" cx="10.7886567" cy="559.434573" rx="10.7886567" ry="10.7325578"></ellipse>
                        <ellipse id="椭圆形复制-5" cx="43.1546268" cy="559.434573" rx="10.7886567" ry="10.7325578"></ellipse>
                        <ellipse id="椭圆形复制-6" cx="75.520597" cy="559.434573" rx="10.7886567" ry="10.7325578"></ellipse>
                        <ellipse id="椭圆形复制-7" cx="107.886567" cy="559.434573" rx="10.7886567" ry="10.7325578"></ellipse>
                        <ellipse id="椭圆形复制-4" cx="10.7886567" cy="623.82992" rx="10.7886567" ry="10.7325578"></ellipse>
                        <ellipse id="椭圆形复制-5" cx="43.1546268" cy="623.82992" rx="10.7886567" ry="10.7325578"></ellipse>
                        <ellipse id="椭圆形复制-6" cx="75.520597" cy="623.82992" rx="10.7886567" ry="10.7325578"></ellipse>
                        <ellipse id="椭圆形复制-7" cx="107.886567" cy="623.82992" rx="10.7886567" ry="10.7325578"></ellipse>
                        <ellipse id="椭圆形复制-4" cx="10.7886567" cy="688.225266" rx="10.7886567" ry="10.7325578"></ellipse>
                        <ellipse id="椭圆形复制-5" cx="43.1546268" cy="688.225266" rx="10.7886567" ry="10.7325578"></ellipse>
                    </g>
                    <g id="编组" fill="#A8BACB">
                        <ellipse id="椭圆形复制-2" cx="75.520597" cy="203.918597" rx="10.7886567" ry="10.7325578"></ellipse>
                        <ellipse id="椭圆形复制-3" cx="107.886567" cy="203.918597" rx="10.7886567" ry="10.7325578"></ellipse>
                        <ellipse id="椭圆形复制-3" cx="107.886567" cy="171.720924" rx="10.7886567" ry="10.7325578"></ellipse>
                        <ellipse id="椭圆形复制" cx="43.1546268" cy="236.116271" rx="10.7886567" ry="10.7325578"></ellipse>
                        <ellipse id="椭圆形复制-2" cx="75.520597" cy="236.116271" rx="10.7886567" ry="10.7325578"></ellipse>
                        <ellipse id="椭圆形复制-3" cx="107.886567" cy="236.116271" rx="10.7886567" ry="10.7325578"></ellipse>
                        <ellipse id="椭圆形" cx="10.7886567" cy="268.313944" rx="10.7886567" ry="10.7325578"></ellipse>
                        <ellipse id="椭圆形复制" cx="43.1546268" cy="268.313944" rx="10.7886567" ry="10.7325578"></ellipse>
                        <ellipse id="椭圆形复制-2" cx="75.520597" cy="268.313944" rx="10.7886567" ry="10.7325578"></ellipse>
                        <ellipse id="椭圆形复制-3" cx="107.886567" cy="268.313944" rx="10.7886567" ry="10.7325578"></ellipse>
                        <ellipse id="椭圆形" cx="10.7886567" cy="332.70929" rx="10.7886567" ry="10.7325578"></ellipse>
                        <ellipse id="椭圆形复制" cx="43.1546268" cy="332.70929" rx="10.7886567" ry="10.7325578"></ellipse>
                        <ellipse id="椭圆形复制-2" cx="75.520597" cy="332.70929" rx="10.7886567" ry="10.7325578"></ellipse>
                        <ellipse id="椭圆形复制-3" cx="107.886567" cy="332.70929" rx="10.7886567" ry="10.7325578"></ellipse>
                        <ellipse id="椭圆形" cx="10.7886567" cy="397.104637" rx="10.7886567" ry="10.7325578"></ellipse>
                        <ellipse id="椭圆形复制" cx="43.1546268" cy="397.104637" rx="10.7886567" ry="10.7325578"></ellipse>
                        <ellipse id="椭圆形复制-2" cx="75.520597" cy="397.104637" rx="10.7886567" ry="10.7325578"></ellipse>
                        <ellipse id="椭圆形复制-3" cx="107.886567" cy="397.104637" rx="10.7886567" ry="10.7325578"></ellipse>
                        <ellipse id="椭圆形" cx="10.7886567" cy="461.499984" rx="10.7886567" ry="10.7325578"></ellipse>
                        <ellipse id="椭圆形复制" cx="43.1546268" cy="461.499984" rx="10.7886567" ry="10.7325578"></ellipse>
                        <ellipse id="椭圆形复制-2" cx="75.520597" cy="461.499984" rx="10.7886567" ry="10.7325578"></ellipse>
                        <ellipse id="椭圆形复制-3" cx="107.886567" cy="461.499984" rx="10.7886567" ry="10.7325578"></ellipse>
                        <ellipse id="椭圆形" cx="10.7886567" cy="300.511617" rx="10.7886567" ry="10.7325578"></ellipse>
                        <ellipse id="椭圆形复制" cx="43.1546268" cy="300.511617" rx="10.7886567" ry="10.7325578"></ellipse>
                        <ellipse id="椭圆形复制-2" cx="75.520597" cy="300.511617" rx="10.7886567" ry="10.7325578"></ellipse>
                        <ellipse id="椭圆形复制-3" cx="107.886567" cy="300.511617" rx="10.7886567" ry="10.7325578"></ellipse>
                        <ellipse id="椭圆形" cx="10.7886567" cy="364.906964" rx="10.7886567" ry="10.7325578"></ellipse>
                        <ellipse id="椭圆形复制" cx="43.1546268" cy="364.906964" rx="10.7886567" ry="10.7325578"></ellipse>
                        <ellipse id="椭圆形复制-2" cx="75.520597" cy="364.906964" rx="10.7886567" ry="10.7325578"></ellipse>
                        <ellipse id="椭圆形复制-3" cx="107.886567" cy="364.906964" rx="10.7886567" ry="10.7325578"></ellipse>
                        <ellipse id="椭圆形" cx="10.7886567" cy="429.30231" rx="10.7886567" ry="10.7325578"></ellipse>
                        <ellipse id="椭圆形复制" cx="43.1546268" cy="429.30231" rx="10.7886567" ry="10.7325578"></ellipse>
                        <ellipse id="椭圆形复制-2" cx="75.520597" cy="429.30231" rx="10.7886567" ry="10.7325578"></ellipse>
                        <ellipse id="椭圆形复制-3" cx="107.886567" cy="429.30231" rx="10.7886567" ry="10.7325578"></ellipse>
                        <ellipse id="椭圆形" cx="10.7886567" cy="493.697657" rx="10.7886567" ry="10.7325578"></ellipse>
                        <ellipse id="椭圆形复制" cx="43.1546268" cy="493.697657" rx="10.7886567" ry="10.7325578"></ellipse>
                        <ellipse id="椭圆形复制-2" cx="75.520597" cy="493.697657" rx="10.7886567" ry="10.7325578"></ellipse>
                        <ellipse id="椭圆形复制-3" cx="107.886567" cy="493.697657" rx="10.7886567" ry="10.7325578"></ellipse>
                        <ellipse id="椭圆形" cx="10.7886567" cy="527.2369" rx="10.7886567" ry="10.7325578"></ellipse>
                        <ellipse id="椭圆形复制" cx="43.1546268" cy="527.2369" rx="10.7886567" ry="10.7325578"></ellipse>
                        <ellipse id="椭圆形复制-2" cx="75.520597" cy="527.2369" rx="10.7886567" ry="10.7325578"></ellipse>
                        <ellipse id="椭圆形复制-3" cx="107.886567" cy="527.2369" rx="10.7886567" ry="10.7325578"></ellipse>
                        <ellipse id="椭圆形" cx="10.7886567" cy="591.632246" rx="10.7886567" ry="10.7325578"></ellipse>
                        <ellipse id="椭圆形复制" cx="43.1546268" cy="591.632246" rx="10.7886567" ry="10.7325578"></ellipse>
                        <ellipse id="椭圆形复制-2" cx="75.520597" cy="591.632246" rx="10.7886567" ry="10.7325578"></ellipse>
                        <ellipse id="椭圆形复制-3" cx="107.886567" cy="591.632246" rx="10.7886567" ry="10.7325578"></ellipse>
                        <ellipse id="椭圆形" cx="10.7886567" cy="656.027593" rx="10.7886567" ry="10.7325578"></ellipse>
                        <ellipse id="椭圆形复制" cx="43.1546268" cy="656.027593" rx="10.7886567" ry="10.7325578"></ellipse>
                        <ellipse id="椭圆形复制-2" cx="75.520597" cy="656.027593" rx="10.7886567" ry="10.7325578"></ellipse>
                        <ellipse id="椭圆形复制-3" cx="107.886567" cy="656.027593" rx="10.7886567" ry="10.7325578"></ellipse>
                        <ellipse id="椭圆形" cx="10.7886567" cy="720.422939" rx="10.7886567" ry="10.7325578"></ellipse>
                        <ellipse id="椭圆形复制" cx="43.1546268" cy="720.422939" rx="10.7886567" ry="10.7325578"></ellipse>
                        <ellipse id="椭圆形复制-2" cx="75.520597" cy="720.422939" rx="10.7886567" ry="10.7325578"></ellipse>
                        <ellipse id="椭圆形复制-3" cx="107.886567" cy="720.422939" rx="10.7886567" ry="10.7325578"></ellipse>
                        <ellipse id="椭圆形" cx="10.7886567" cy="559.434573" rx="10.7886567" ry="10.7325578"></ellipse>
                        <ellipse id="椭圆形复制" cx="43.1546268" cy="559.434573" rx="10.7886567" ry="10.7325578"></ellipse>
                        <ellipse id="椭圆形复制-2" cx="75.520597" cy="559.434573" rx="10.7886567" ry="10.7325578"></ellipse>
                        <ellipse id="椭圆形复制-3" cx="107.886567" cy="559.434573" rx="10.7886567" ry="10.7325578"></ellipse>
                        <ellipse id="椭圆形" cx="10.7886567" cy="623.82992" rx="10.7886567" ry="10.7325578"></ellipse>
                        <ellipse id="椭圆形复制" cx="43.1546268" cy="623.82992" rx="10.7886567" ry="10.7325578"></ellipse>
                        <ellipse id="椭圆形复制-2" cx="75.520597" cy="623.82992" rx="10.7886567" ry="10.7325578"></ellipse>
                        <ellipse id="椭圆形复制-3" cx="107.886567" cy="623.82992" rx="10.7886567" ry="10.7325578"></ellipse>
                        <ellipse id="椭圆形" cx="10.7886567" cy="688.225266" rx="10.7886567" ry="10.7325578"></ellipse>
                        <ellipse id="椭圆形复制" cx="43.1546268" cy="688.225266" rx="10.7886567" ry="10.7325578"></ellipse>
                        <ellipse id="椭圆形复制-2" cx="75.520597" cy="688.225266" rx="10.7886567" ry="10.7325578"></ellipse>
                        <ellipse id="椭圆形复制-3" cx="107.886567" cy="688.225266" rx="10.7886567" ry="10.7325578"></ellipse>
                        <ellipse id="椭圆形" cx="10.7886567" cy="752.620613" rx="10.7886567" ry="10.7325578"></ellipse>
                        <ellipse id="椭圆形复制" cx="43.1546268" cy="752.620613" rx="10.7886567" ry="10.7325578"></ellipse>
                        <ellipse id="椭圆形复制-2" cx="75.520597" cy="752.620613" rx="10.7886567" ry="10.7325578"></ellipse>
                        <ellipse id="椭圆形复制-3" cx="107.886567" cy="752.620613" rx="10.7886567" ry="10.7325578"></ellipse>
                    </g>
                    <g id="编组-2" transform="translate(258.927761, 0.000000)"></g>
                    <g id="编组-4" transform="translate(388.391642, 0.000000)" fill="#B1AFC8">
                        <ellipse id="椭圆形复制-12" cx="10.7886567" cy="10.7325578" rx="10.7886567" ry="10.7325578"></ellipse>
                        <ellipse id="椭圆形复制-13" cx="43.1546268" cy="10.7325578" rx="10.7886567" ry="10.7325578"></ellipse>
                        <ellipse id="椭圆形复制-14" cx="75.520597" cy="10.7325578" rx="10.7886567" ry="10.7325578"></ellipse>
                        <ellipse id="椭圆形复制-15" cx="107.886567" cy="10.7325578" rx="10.7886567" ry="10.7325578"></ellipse>
                        <ellipse id="椭圆形复制-12" cx="10.7886567" cy="75.1279043" rx="10.7886567" ry="10.7325578"></ellipse>
                        <ellipse id="椭圆形复制-13" cx="43.1546268" cy="75.1279043" rx="10.7886567" ry="10.7325578"></ellipse>
                        <ellipse id="椭圆形复制-14" cx="75.520597" cy="75.1279043" rx="10.7886567" ry="10.7325578"></ellipse>
                        <ellipse id="椭圆形复制-15" cx="107.886567" cy="75.1279043" rx="10.7886567" ry="10.7325578"></ellipse>
                        <ellipse id="椭圆形复制-12" cx="10.7886567" cy="139.523251" rx="10.7886567" ry="10.7325578"></ellipse>
                        <ellipse id="椭圆形复制-13" cx="43.1546268" cy="139.523251" rx="10.7886567" ry="10.7325578"></ellipse>
                        <ellipse id="椭圆形复制-14" cx="75.520597" cy="139.523251" rx="10.7886567" ry="10.7325578"></ellipse>
                        <ellipse id="椭圆形复制-15" cx="107.886567" cy="139.523251" rx="10.7886567" ry="10.7325578"></ellipse>
                        <ellipse id="椭圆形复制-12" cx="10.7886567" cy="203.918597" rx="10.7886567" ry="10.7325578"></ellipse>
                        <ellipse id="椭圆形复制-13" cx="43.1546268" cy="203.918597" rx="10.7886567" ry="10.7325578"></ellipse>
                        <ellipse id="椭圆形复制-14" cx="75.520597" cy="203.918597" rx="10.7886567" ry="10.7325578"></ellipse>
                        <ellipse id="椭圆形复制-15" cx="107.886567" cy="203.918597" rx="10.7886567" ry="10.7325578"></ellipse>
                        <ellipse id="椭圆形复制-12" cx="10.7886567" cy="42.930231" rx="10.7886567" ry="10.7325578"></ellipse>
                        <ellipse id="椭圆形复制-13" cx="43.1546268" cy="42.930231" rx="10.7886567" ry="10.7325578"></ellipse>
                        <ellipse id="椭圆形复制-14" cx="75.520597" cy="42.930231" rx="10.7886567" ry="10.7325578"></ellipse>
                        <ellipse id="椭圆形复制-15" cx="107.886567" cy="42.930231" rx="10.7886567" ry="10.7325578"></ellipse>
                        <ellipse id="椭圆形复制-12" cx="10.7886567" cy="107.325578" rx="10.7886567" ry="10.7325578"></ellipse>
                        <ellipse id="椭圆形复制-13" cx="43.1546268" cy="107.325578" rx="10.7886567" ry="10.7325578"></ellipse>
                        <ellipse id="椭圆形复制-14" cx="75.520597" cy="107.325578" rx="10.7886567" ry="10.7325578"></ellipse>
                        <ellipse id="椭圆形复制-15" cx="107.886567" cy="107.325578" rx="10.7886567" ry="10.7325578"></ellipse>
                        <ellipse id="椭圆形复制-12" cx="10.7886567" cy="171.720924" rx="10.7886567" ry="10.7325578"></ellipse>
                        <ellipse id="椭圆形复制-13" cx="43.1546268" cy="171.720924" rx="10.7886567" ry="10.7325578"></ellipse>
                        <ellipse id="椭圆形复制-14" cx="75.520597" cy="171.720924" rx="10.7886567" ry="10.7325578"></ellipse>
                        <ellipse id="椭圆形复制-15" cx="107.886567" cy="171.720924" rx="10.7886567" ry="10.7325578"></ellipse>
                        <ellipse id="椭圆形复制-12" cx="10.7886567" cy="236.116271" rx="10.7886567" ry="10.7325578"></ellipse>
                        <ellipse id="椭圆形复制-13" cx="43.1546268" cy="236.116271" rx="10.7886567" ry="10.7325578"></ellipse>
                        <ellipse id="椭圆形复制-14" cx="75.520597" cy="236.116271" rx="10.7886567" ry="10.7325578"></ellipse>
                        <ellipse id="椭圆形复制-15" cx="107.886567" cy="236.116271" rx="10.7886567" ry="10.7325578"></ellipse>
                        <ellipse id="椭圆形复制-12" cx="10.7886567" cy="268.313944" rx="10.7886567" ry="10.7325578"></ellipse>
                        <ellipse id="椭圆形复制-13" cx="43.1546268" cy="268.313944" rx="10.7886567" ry="10.7325578"></ellipse>
                        <ellipse id="椭圆形复制-14" cx="75.520597" cy="268.313944" rx="10.7886567" ry="10.7325578"></ellipse>
                        <ellipse id="椭圆形复制-15" cx="107.886567" cy="268.313944" rx="10.7886567" ry="10.7325578"></ellipse>
                        <ellipse id="椭圆形复制-12" cx="10.7886567" cy="332.70929" rx="10.7886567" ry="10.7325578"></ellipse>
                        <ellipse id="椭圆形复制-13" cx="43.1546268" cy="332.70929" rx="10.7886567" ry="10.7325578"></ellipse>
                        <ellipse id="椭圆形复制-14" cx="75.520597" cy="332.70929" rx="10.7886567" ry="10.7325578"></ellipse>
                        <ellipse id="椭圆形复制-15" cx="107.886567" cy="332.70929" rx="10.7886567" ry="10.7325578"></ellipse>
                        <ellipse id="椭圆形复制-12" cx="10.7886567" cy="397.104637" rx="10.7886567" ry="10.7325578"></ellipse>
                        <ellipse id="椭圆形复制-13" cx="43.1546268" cy="397.104637" rx="10.7886567" ry="10.7325578"></ellipse>
                        <ellipse id="椭圆形复制-14" cx="75.520597" cy="397.104637" rx="10.7886567" ry="10.7325578"></ellipse>
                        <ellipse id="椭圆形复制-12" cx="10.7886567" cy="461.499984" rx="10.7886567" ry="10.7325578"></ellipse>
                        <ellipse id="椭圆形复制-12" cx="10.7886567" cy="300.511617" rx="10.7886567" ry="10.7325578"></ellipse>
                        <ellipse id="椭圆形复制-13" cx="43.1546268" cy="300.511617" rx="10.7886567" ry="10.7325578"></ellipse>
                        <ellipse id="椭圆形复制-14" cx="75.520597" cy="300.511617" rx="10.7886567" ry="10.7325578"></ellipse>
                        <ellipse id="椭圆形复制-15" cx="107.886567" cy="300.511617" rx="10.7886567" ry="10.7325578"></ellipse>
                        <ellipse id="椭圆形复制-12" cx="10.7886567" cy="364.906964" rx="10.7886567" ry="10.7325578"></ellipse>
                        <ellipse id="椭圆形复制-13" cx="43.1546268" cy="364.906964" rx="10.7886567" ry="10.7325578"></ellipse>
                        <ellipse id="椭圆形复制-14" cx="75.520597" cy="364.906964" rx="10.7886567" ry="10.7325578"></ellipse>
                        <ellipse id="椭圆形复制-15" cx="107.886567" cy="364.906964" rx="10.7886567" ry="10.7325578"></ellipse>
                        <ellipse id="椭圆形复制-12" cx="10.7886567" cy="429.30231" rx="10.7886567" ry="10.7325578"></ellipse>
                        <ellipse id="椭圆形复制-13" cx="43.1546268" cy="429.30231" rx="10.7886567" ry="10.7325578"></ellipse>
                    </g>
                    <g id="编组-5" transform="translate(258.927761, 0.000000)" fill="#AEB4CA">
                        <ellipse id="椭圆形复制-8" cx="10.7886567" cy="10.7325578" rx="10.7886567" ry="10.7325578"></ellipse>
                        <ellipse id="椭圆形复制-9" cx="43.1546268" cy="10.7325578" rx="10.7886567" ry="10.7325578"></ellipse>
                        <ellipse id="椭圆形复制-10" cx="75.520597" cy="10.7325578" rx="10.7886567" ry="10.7325578"></ellipse>
                        <ellipse id="椭圆形复制-11" cx="107.886567" cy="10.7325578" rx="10.7886567" ry="10.7325578"></ellipse>
                        <ellipse id="椭圆形复制-8" cx="10.7886567" cy="75.1279043" rx="10.7886567" ry="10.7325578"></ellipse>
                        <ellipse id="椭圆形复制-9" cx="43.1546268" cy="75.1279043" rx="10.7886567" ry="10.7325578"></ellipse>
                        <ellipse id="椭圆形复制-10" cx="75.520597" cy="75.1279043" rx="10.7886567" ry="10.7325578"></ellipse>
                        <ellipse id="椭圆形复制-11" cx="107.886567" cy="75.1279043" rx="10.7886567" ry="10.7325578"></ellipse>
                        <ellipse id="椭圆形复制-8" cx="10.7886567" cy="139.523251" rx="10.7886567" ry="10.7325578"></ellipse>
                        <ellipse id="椭圆形复制-9" cx="43.1546268" cy="139.523251" rx="10.7886567" ry="10.7325578"></ellipse>
                        <ellipse id="椭圆形复制-10" cx="75.520597" cy="139.523251" rx="10.7886567" ry="10.7325578"></ellipse>
                        <ellipse id="椭圆形复制-11" cx="107.886567" cy="139.523251" rx="10.7886567" ry="10.7325578"></ellipse>
                        <ellipse id="椭圆形复制-8" cx="10.7886567" cy="203.918597" rx="10.7886567" ry="10.7325578"></ellipse>
                        <ellipse id="椭圆形复制-9" cx="43.1546268" cy="203.918597" rx="10.7886567" ry="10.7325578"></ellipse>
                        <ellipse id="椭圆形复制-10" cx="75.520597" cy="203.918597" rx="10.7886567" ry="10.7325578"></ellipse>
                        <ellipse id="椭圆形复制-11" cx="107.886567" cy="203.918597" rx="10.7886567" ry="10.7325578"></ellipse>
                        <ellipse id="椭圆形复制-8" cx="10.7886567" cy="42.930231" rx="10.7886567" ry="10.7325578"></ellipse>
                        <ellipse id="椭圆形复制-9" cx="43.1546268" cy="42.930231" rx="10.7886567" ry="10.7325578"></ellipse>
                        <ellipse id="椭圆形复制-10" cx="75.520597" cy="42.930231" rx="10.7886567" ry="10.7325578"></ellipse>
                        <ellipse id="椭圆形复制-11" cx="107.886567" cy="42.930231" rx="10.7886567" ry="10.7325578"></ellipse>
                        <ellipse id="椭圆形复制-8" cx="10.7886567" cy="107.325578" rx="10.7886567" ry="10.7325578"></ellipse>
                        <ellipse id="椭圆形复制-9" cx="43.1546268" cy="107.325578" rx="10.7886567" ry="10.7325578"></ellipse>
                        <ellipse id="椭圆形复制-10" cx="75.520597" cy="107.325578" rx="10.7886567" ry="10.7325578"></ellipse>
                        <ellipse id="椭圆形复制-11" cx="107.886567" cy="107.325578" rx="10.7886567" ry="10.7325578"></ellipse>
                        <ellipse id="椭圆形复制-8" cx="10.7886567" cy="171.720924" rx="10.7886567" ry="10.7325578"></ellipse>
                        <ellipse id="椭圆形复制-9" cx="43.1546268" cy="171.720924" rx="10.7886567" ry="10.7325578"></ellipse>
                        <ellipse id="椭圆形复制-10" cx="75.520597" cy="171.720924" rx="10.7886567" ry="10.7325578"></ellipse>
                        <ellipse id="椭圆形复制-11" cx="107.886567" cy="171.720924" rx="10.7886567" ry="10.7325578"></ellipse>
                        <ellipse id="椭圆形复制-8" cx="10.7886567" cy="236.116271" rx="10.7886567" ry="10.7325578"></ellipse>
                        <ellipse id="椭圆形复制-9" cx="43.1546268" cy="236.116271" rx="10.7886567" ry="10.7325578"></ellipse>
                        <ellipse id="椭圆形复制-10" cx="75.520597" cy="236.116271" rx="10.7886567" ry="10.7325578"></ellipse>
                        <ellipse id="椭圆形复制-11" cx="107.886567" cy="236.116271" rx="10.7886567" ry="10.7325578"></ellipse>
                        <ellipse id="椭圆形复制-8" cx="10.7886567" cy="268.313944" rx="10.7886567" ry="10.7325578"></ellipse>
                        <ellipse id="椭圆形复制-9" cx="43.1546268" cy="268.313944" rx="10.7886567" ry="10.7325578"></ellipse>
                        <ellipse id="椭圆形复制-10" cx="75.520597" cy="268.313944" rx="10.7886567" ry="10.7325578"></ellipse>
                        <ellipse id="椭圆形复制-11" cx="107.886567" cy="268.313944" rx="10.7886567" ry="10.7325578"></ellipse>
                        <ellipse id="椭圆形复制-8" cx="10.7886567" cy="332.70929" rx="10.7886567" ry="10.7325578"></ellipse>
                        <ellipse id="椭圆形复制-9" cx="43.1546268" cy="332.70929" rx="10.7886567" ry="10.7325578"></ellipse>
                        <ellipse id="椭圆形复制-10" cx="75.520597" cy="332.70929" rx="10.7886567" ry="10.7325578"></ellipse>
                        <ellipse id="椭圆形复制-11" cx="107.886567" cy="332.70929" rx="10.7886567" ry="10.7325578"></ellipse>
                        <ellipse id="椭圆形复制-8" cx="10.7886567" cy="397.104637" rx="10.7886567" ry="10.7325578"></ellipse>
                        <ellipse id="椭圆形复制-9" cx="43.1546268" cy="397.104637" rx="10.7886567" ry="10.7325578"></ellipse>
                        <ellipse id="椭圆形复制-10" cx="75.520597" cy="397.104637" rx="10.7886567" ry="10.7325578"></ellipse>
                        <ellipse id="椭圆形复制-11" cx="107.886567" cy="397.104637" rx="10.7886567" ry="10.7325578"></ellipse>
                        <ellipse id="椭圆形复制-8" cx="10.7886567" cy="461.499984" rx="10.7886567" ry="10.7325578"></ellipse>
                        <ellipse id="椭圆形复制-9" cx="43.1546268" cy="461.499984" rx="10.7886567" ry="10.7325578"></ellipse>
                        <ellipse id="椭圆形复制-10" cx="75.520597" cy="461.499984" rx="10.7886567" ry="10.7325578"></ellipse>
                        <ellipse id="椭圆形复制-11" cx="107.886567" cy="461.499984" rx="10.7886567" ry="10.7325578"></ellipse>
                        <ellipse id="椭圆形复制-8" cx="10.7886567" cy="300.511617" rx="10.7886567" ry="10.7325578"></ellipse>
                        <ellipse id="椭圆形复制-9" cx="43.1546268" cy="300.511617" rx="10.7886567" ry="10.7325578"></ellipse>
                        <ellipse id="椭圆形复制-10" cx="75.520597" cy="300.511617" rx="10.7886567" ry="10.7325578"></ellipse>
                        <ellipse id="椭圆形复制-11" cx="107.886567" cy="300.511617" rx="10.7886567" ry="10.7325578"></ellipse>
                        <ellipse id="椭圆形复制-8" cx="10.7886567" cy="364.906964" rx="10.7886567" ry="10.7325578"></ellipse>
                        <ellipse id="椭圆形复制-9" cx="43.1546268" cy="364.906964" rx="10.7886567" ry="10.7325578"></ellipse>
                        <ellipse id="椭圆形复制-10" cx="75.520597" cy="364.906964" rx="10.7886567" ry="10.7325578"></ellipse>
                        <ellipse id="椭圆形复制-11" cx="107.886567" cy="364.906964" rx="10.7886567" ry="10.7325578"></ellipse>
                        <ellipse id="椭圆形复制-8" cx="10.7886567" cy="429.30231" rx="10.7886567" ry="10.7325578"></ellipse>
                        <ellipse id="椭圆形复制-9" cx="43.1546268" cy="429.30231" rx="10.7886567" ry="10.7325578"></ellipse>
                        <ellipse id="椭圆形复制-10" cx="75.520597" cy="429.30231" rx="10.7886567" ry="10.7325578"></ellipse>
                        <ellipse id="椭圆形复制-11" cx="107.886567" cy="429.30231" rx="10.7886567" ry="10.7325578"></ellipse>
                        <ellipse id="椭圆形复制-8" cx="10.7886567" cy="493.697657" rx="10.7886567" ry="10.7325578"></ellipse>
                        <ellipse id="椭圆形复制-9" cx="43.1546268" cy="493.697657" rx="10.7886567" ry="10.7325578"></ellipse>
                        <ellipse id="椭圆形复制-10" cx="75.520597" cy="493.697657" rx="10.7886567" ry="10.7325578"></ellipse>
                        <ellipse id="椭圆形复制-11" cx="107.886567" cy="493.697657" rx="10.7886567" ry="10.7325578"></ellipse>
                        <ellipse id="椭圆形复制-8" cx="10.7886567" cy="527.2369" rx="10.7886567" ry="10.7325578"></ellipse>
                        <ellipse id="椭圆形复制-9" cx="43.1546268" cy="527.2369" rx="10.7886567" ry="10.7325578"></ellipse>
                        <ellipse id="椭圆形复制-10" cx="75.520597" cy="527.2369" rx="10.7886567" ry="10.7325578"></ellipse>
                        <ellipse id="椭圆形复制-8" cx="10.7886567" cy="591.632246" rx="10.7886567" ry="10.7325578"></ellipse>
                        <ellipse id="椭圆形复制-8" cx="10.7886567" cy="559.434573" rx="10.7886567" ry="10.7325578"></ellipse>
                        <ellipse id="椭圆形复制-9" cx="43.1546268" cy="559.434573" rx="10.7886567" ry="10.7325578"></ellipse>
                    </g>
                    <g id="编组-7" transform="translate(517.855522, 0.000000)" fill="#B3ACC8">
                        <ellipse id="椭圆形复制-18" cx="10.7886567" cy="10.7325578" rx="10.7886567" ry="10.7325578"></ellipse>
                        <ellipse id="椭圆形复制-16" cx="75.520597" cy="75.1279043" rx="10.7886567" ry="10.7325578"></ellipse>
                        <ellipse id="椭圆形复制-18" cx="10.7886567" cy="75.1279043" rx="10.7886567" ry="10.7325578"></ellipse>
                        <ellipse id="椭圆形复制-20" cx="43.1546268" cy="75.1279043" rx="10.7886567" ry="10.7325578"></ellipse>
                        <ellipse id="椭圆形复制-16" cx="75.520597" cy="139.523251" rx="10.7886567" ry="10.7325578"></ellipse>
                        <ellipse id="椭圆形复制-17" cx="107.886567" cy="139.523251" rx="10.7886567" ry="10.7325578"></ellipse>
                        <ellipse id="椭圆形复制-18" cx="10.7886567" cy="139.523251" rx="10.7886567" ry="10.7325578"></ellipse>
                        <ellipse id="椭圆形复制-20" cx="43.1546268" cy="139.523251" rx="10.7886567" ry="10.7325578"></ellipse>
                        <ellipse id="椭圆形复制-16" cx="75.520597" cy="203.918597" rx="10.7886567" ry="10.7325578"></ellipse>
                        <ellipse id="椭圆形复制-17" cx="107.886567" cy="203.918597" rx="10.7886567" ry="10.7325578"></ellipse>
                        <ellipse id="椭圆形复制-18" cx="10.7886567" cy="203.918597" rx="10.7886567" ry="10.7325578"></ellipse>
                        <ellipse id="椭圆形复制-20" cx="43.1546268" cy="203.918597" rx="10.7886567" ry="10.7325578"></ellipse>
                        <ellipse id="椭圆形复制-18" cx="10.7886567" cy="42.930231" rx="10.7886567" ry="10.7325578"></ellipse>
                        <ellipse id="椭圆形复制-20" cx="43.1546268" cy="42.930231" rx="10.7886567" ry="10.7325578"></ellipse>
                        <ellipse id="椭圆形复制-16" cx="75.520597" cy="107.325578" rx="10.7886567" ry="10.7325578"></ellipse>
                        <ellipse id="椭圆形复制-17" cx="107.886567" cy="107.325578" rx="10.7886567" ry="10.7325578"></ellipse>
                        <ellipse id="椭圆形复制-18" cx="10.7886567" cy="107.325578" rx="10.7886567" ry="10.7325578"></ellipse>
                        <ellipse id="椭圆形复制-20" cx="43.1546268" cy="107.325578" rx="10.7886567" ry="10.7325578"></ellipse>
                        <ellipse id="椭圆形复制-16" cx="75.520597" cy="171.720924" rx="10.7886567" ry="10.7325578"></ellipse>
                        <ellipse id="椭圆形复制-17" cx="107.886567" cy="171.720924" rx="10.7886567" ry="10.7325578"></ellipse>
                        <ellipse id="椭圆形复制-18" cx="10.7886567" cy="171.720924" rx="10.7886567" ry="10.7325578"></ellipse>
                        <ellipse id="椭圆形复制-20" cx="43.1546268" cy="171.720924" rx="10.7886567" ry="10.7325578"></ellipse>
                        <ellipse id="椭圆形复制-16" cx="75.520597" cy="236.116271" rx="10.7886567" ry="10.7325578"></ellipse>
                        <ellipse id="椭圆形复制-17" cx="107.886567" cy="236.116271" rx="10.7886567" ry="10.7325578"></ellipse>
                        <ellipse id="椭圆形复制-18" cx="10.7886567" cy="236.116271" rx="10.7886567" ry="10.7325578"></ellipse>
                        <ellipse id="椭圆形复制-20" cx="43.1546268" cy="236.116271" rx="10.7886567" ry="10.7325578"></ellipse>
                        <ellipse id="椭圆形复制-16" cx="75.520597" cy="268.313944" rx="10.7886567" ry="10.7325578"></ellipse>
                        <ellipse id="椭圆形复制-18" cx="10.7886567" cy="268.313944" rx="10.7886567" ry="10.7325578"></ellipse>
                        <ellipse id="椭圆形复制-20" cx="43.1546268" cy="268.313944" rx="10.7886567" ry="10.7325578"></ellipse>
                        <ellipse id="椭圆形复制-18" cx="10.7886567" cy="332.70929" rx="10.7886567" ry="10.7325578"></ellipse>
                        <ellipse id="椭圆形复制-18" cx="10.7886567" cy="300.511617" rx="10.7886567" ry="10.7325578"></ellipse>
                        <ellipse id="椭圆形复制-20" cx="43.1546268" cy="300.511617" rx="10.7886567" ry="10.7325578"></ellipse>
                    </g>
                    <g id="编组-8" transform="translate(647.319403, 0.000000)" fill="#B2AFC9">
                        <ellipse id="椭圆形复制-19" cx="10.7886567" cy="139.523251" rx="10.7886567" ry="10.7325578"></ellipse>
                        <ellipse id="椭圆形复制-19" cx="10.7886567" cy="203.918597" rx="10.7886567" ry="10.7325578"></ellipse>
                        <ellipse id="椭圆形复制-19" cx="10.7886567" cy="171.720924" rx="10.7886567" ry="10.7325578"></ellipse>
                        <ellipse id="椭圆形复制-21" cx="43.1546268" cy="171.720924" rx="10.7886567" ry="10.7325578"></ellipse>
                    </g>
                </g>
            </g>
        </g>
    </g>
</svg>